<svg height="511pt" viewBox="1 -110 511.9994 511" width="511pt" xmlns="http://www.w3.org/2000/svg" xmlns:xlink="http://www.w3.org/1999/xlink"><linearGradient id="a"><stop offset="0" stop-color="#004ff9"/><stop offset=".994" stop-color="#1cb5e0"/></linearGradient><linearGradient id="b" gradientTransform="matrix(.609503 0 0 -.609503 0 400.332094)" gradientUnits="userSpaceOnUse" x1="-61.3781" x2="870.5771" xlink:href="#a" y1="417.9889" y2="417.9889"/><linearGradient id="c" gradientTransform="matrix(.609503 0 0 -.609503 0 400.332094)" gradientUnits="userSpaceOnUse" x1="-61.3781" x2="870.5771" xlink:href="#a" y1="571.994" y2="571.994"/><linearGradient id="d" gradientTransform="matrix(.609503 0 0 -.609503 0 400.332094)" gradientUnits="userSpaceOnUse" x1="-61.3781" x2="870.5771" xlink:href="#a" y1="459.9903" y2="459.9903"/><linearGradient id="e" gradientTransform="matrix(.609503 0 0 -.609503 0 400.332094)" gradientUnits="userSpaceOnUse" x1="-61.3781" x2="870.5771" xlink:href="#a" y1="347.9865" y2="347.9865"/><linearGradient id="f" gradientTransform="matrix(.609503 0 0 -.609503 0 400.332094)" gradientUnits="userSpaceOnUse" x1="-61.3781" x2="870.5771" xlink:href="#a" y1="263.9837" y2="263.9837"/><path d="m503.46875.5h-494.9375c-4.710938 0-8.53125 3.820312-8.53125 8.53125v273.066406c0 4.714844 3.820312 8.535156 8.53125 8.535156h494.933594c4.714844 0 8.535156-3.820312 8.535156-8.535156v-273.0625c0-4.714844-3.820312-8.535156-8.53125-8.535156zm-8.535156 273.066406h-477.867188v-256h477.867188zm0 0" fill="url(#b)"/><path d="m59.734375 247.964844h153.597656c4.714844 0 8.535157-3.820313 8.535157-8.53125v-187.734375c0-4.710938-3.820313-8.53125-8.535157-8.53125h-153.597656c-4.714844 0-8.535156 3.820312-8.535156 8.53125v187.734375c0 4.710937 3.820312 8.53125 8.535156 8.53125zm110.933594-17.066406h-68.269531v-34.132813c0-18.851563 15.285156-34.132813 34.136718-34.132813 18.851563 0 34.132813 15.28125 34.132813 34.132813zm-59.734375-110.933594c0-14.136719 11.460937-25.597656 25.597656-25.597656 14.140625 0 25.601562 11.460937 25.601562 25.597656 0 14.140625-11.460937 25.601562-25.601562 25.601562-14.136719 0-25.597656-11.460937-25.597656-25.601562zm-42.667969-59.730469h136.535156v170.664063h-17.066406v-34.132813c-.019531-17.863281-9.359375-34.421875-24.636719-43.679687 18.441406-14.671876 21.496094-41.515626 6.824219-59.953126-14.671875-18.441406-41.511719-21.496093-59.953125-6.824218-18.441406 14.667968-21.496094 41.511718-6.824219 59.953125 2.011719 2.523437 4.300781 4.8125 6.824219 6.824219-15.277344 9.257812-24.617188 25.816406-24.636719 43.679687v34.132813h-17.066406zm0 0" fill="url(#b)"/><path d="m256 43.167969h153.601562v17.066406h-153.601562zm0 0" fill="url(#c)"/><path d="m256 111.433594h196.265625v17.066406h-196.265625zm0 0" fill="url(#d)"/><path d="m256 179.699219h196.265625v17.066406h-196.265625zm0 0" fill="url(#e)"/><g fill="url(#f)"><path d="m256 230.898438h17.066406v17.066406h-17.066406zm0 0"/><path d="m298.667969 230.898438h17.066406v17.066406h-17.066406zm0 0"/><path d="m341.332031 230.898438h17.066407v17.066406h-17.066407zm0 0"/></g></svg>