<svg id="Capa_1" enable-background="new 0 0 512.001 512.001" height="512" viewBox="0 0 512.001 512.001" width="512" xmlns="http://www.w3.org/2000/svg"><g><g><path d="m484.103 170.569-66.044-88.451c-1.855-2.485-4.909-4.018-8.012-4.018h-32.765l.002-68.1c0-5.445-4.555-10-10-10h-109.013c-5.523 0-10 4.478-10 10s4.477 10 10 10h52.487v58.1h-32.797c-7.984 0-12.83 9.535-8.015 15.983l64.055 85.788v96.999h-146.57v-46.068c.282-20.235-16.286-37.422-36.562-37.661-20.285-.23-37.393 16.644-37.393 36.967v60.137c0 4.99-3.896 9.599-8.929 10.119-6.115.572-10.826-3.604-10.826-9.803l-.029-245.561c0-13.785 11.215-25 25-25h51.245c5.523 0 10-4.478 10-10s-4.477-10-10-10h-51.245c-24.813 0-45 20.187-45 45l.029 147.851-32.174 31.937c-10.083 10.084-15.636 23.488-15.636 37.743v79.503c0 13.084 4.787 25.68 13.478 35.466.13.146.264.289.402.428l29.405 29.435-11.334 93.434c-.665 5.482 3.24 10.466 8.723 11.131.409.05.815.074 1.217.074 4.985 0 9.299-3.723 9.915-8.797l11.92-98.264c.37-3.049-.682-6.099-2.853-8.271l-32.623-32.654c-5.323-6.094-8.251-13.888-8.251-21.98v-79.503c0-8.913 3.473-17.295 9.752-23.575l18.059-17.926v69.53c.172 17.126 14.172 30.621 31.202 29.817 15.862-.685 28.558-13.794 28.558-29.817v-60.45c0-9.405 7.934-17.066 17.189-16.969 9.36.118 16.824 8.416 16.761 17.659 0 2.099-.011 126.873 0 138.681.007 7.406-2.475 14.622-6.987 20.319l-6.122 7.727c-1.4 1.768-2.162 3.955-2.162 6.21v98.261c0 5.522 4.477 10 10 10s10-4.478 10-10v-94.782l3.96-4.999c5.68-7.17 9.36-15.8 10.717-24.879h154.915c6.754 0 12.249-5.495 12.249-12.249v-178.539h21.766v68.101c0 5.522 4.478 10 10 10h48.56c5.522 0 10-4.478 10-10v-68.101h31.764c3.784 0 7.244-2.136 8.939-5.519 1.696-3.383 1.337-7.432-.927-10.464zm-123.892-75.397c1.876 1.875 4.419 2.929 7.071 2.929h22.818l-46.097 61.737-46.095-61.737h22.85c5.44 0 10.004-4.555 10.004-10.001v-68.1h26.521l-.001 68.101c.001 2.652 1.054 5.195 2.929 7.071zm-26.21 201.698v20.736l-146.579.004c0-5.557 0-19.607 0-20.74zm-146.572 60.47c-.002-5.306-.004-12.028-.005-19.73l146.578-.004v19.734zm246.898-190.788c-5.522 0-10 4.478-10 10v68.101h-28.56v-68.101c0-5.522-4.478-10-10-10h-21.817l46.097-61.737 46.097 61.737z"/><path d="m208.3 18.31c7.246 4.835 17.083-1.707 15.35-10.26-.863-4.258-4.483-7.585-8.824-8.001-4.422-.424-8.707 2.211-10.304 6.359-1.65 4.285-.089 9.374 3.778 11.902z"/></g></g></svg>