<svg id="Capa_1" enable-background="new 0 0 504.075 504.075" height="512" viewBox="0 0 504.075 504.075" width="512" xmlns="http://www.w3.org/2000/svg"><g><path d="m462.037 0h-420v30h45v189.27l144.895 72.447-21.012 42.577-91.941 13.359 66.529 64.85-15.705 91.57 82.235-43.234 82.235 43.234-15.705-91.57 66.529-64.85-91.941-13.359-21.012-42.577 144.895-72.447v-189.27h45v-30zm-210 268.229-75-37.5v-86.459l75 37.5 75-37.5v86.459zm75-157.5-75 37.5-75-37.5v-80.729h150zm-210-80.729h30v185.729l-30-15zm203.591 338.601-34.295 33.43 8.096 47.203-42.391-22.287-42.391 22.287 8.096-47.203-34.295-33.43 47.395-6.887 21.196-42.947 21.196 42.947zm66.409-167.872-30 15v-185.729h30z"/></g></svg>