<svg width="92" height="92" viewBox="0 0 92 92" fill="none" xmlns="http://www.w3.org/2000/svg">
<circle cx="46" cy="46" r="45.5" stroke="black"/>
<path d="M88.5 31L85.7741 36.2814C83.2579 41.1566 76.6007 41.9226 73.043 37.7461C70.6845 34.9774 66.7128 34.2315 63.5105 35.9559L57.1852 39.3618C56.3964 39.7866 55.6432 40.2745 54.933 40.8208L52.422 42.7523C46.4641 47.3353 38.7516 48.9745 31.4447 47.2108L30.6603 47.0214C29.2254 46.6751 27.8379 46.1557 26.5283 45.4747C20.1279 42.1465 12.3669 42.9065 6.73372 47.413L1 52" stroke="black"/>
<path d="M34.4082 64.0098L34.9141 59.0469H40.0137V60.2158H35.9873L35.6865 62.9297C36.1742 62.6426 36.7279 62.499 37.3477 62.499C38.2546 62.499 38.9746 62.7998 39.5078 63.4014C40.041 63.9984 40.3076 64.8073 40.3076 65.8281C40.3076 66.8535 40.0296 67.6624 39.4736 68.2549C38.9222 68.8428 38.1497 69.1367 37.1562 69.1367C36.2767 69.1367 35.5589 68.8929 35.0029 68.4053C34.4469 67.9176 34.1302 67.2432 34.0527 66.3818H35.249C35.3265 66.9515 35.5293 67.3822 35.8574 67.6738C36.1855 67.9609 36.6185 68.1045 37.1562 68.1045C37.7441 68.1045 38.2044 67.904 38.5371 67.5029C38.8743 67.1019 39.043 66.5482 39.043 65.8418C39.043 65.1764 38.8607 64.6432 38.4961 64.2422C38.1361 63.8366 37.6553 63.6338 37.0537 63.6338C36.5023 63.6338 36.0693 63.7546 35.7549 63.9961L35.4199 64.2695L34.4082 64.0098ZM42.2695 64.0098L42.7754 59.0469H47.875V60.2158H43.8486L43.5479 62.9297C44.0355 62.6426 44.5892 62.499 45.209 62.499C46.1159 62.499 46.8359 62.7998 47.3691 63.4014C47.9023 63.9984 48.1689 64.8073 48.1689 65.8281C48.1689 66.8535 47.891 67.6624 47.335 68.2549C46.7835 68.8428 46.0111 69.1367 45.0176 69.1367C44.138 69.1367 43.4202 68.8929 42.8643 68.4053C42.3083 67.9176 41.9915 67.2432 41.9141 66.3818H43.1104C43.1878 66.9515 43.3906 67.3822 43.7188 67.6738C44.0469 67.9609 44.4798 68.1045 45.0176 68.1045C45.6055 68.1045 46.0658 67.904 46.3984 67.5029C46.7357 67.1019 46.9043 66.5482 46.9043 65.8418C46.9043 65.1764 46.722 64.6432 46.3574 64.2422C45.9974 63.8366 45.5166 63.6338 44.915 63.6338C44.3636 63.6338 43.9307 63.7546 43.6162 63.9961L43.2812 64.2695L42.2695 64.0098ZM49.4404 60.9609C49.4404 60.3639 49.6296 59.8717 50.0078 59.4844C50.3906 59.097 50.8805 58.9033 51.4775 58.9033C52.0837 58.9033 52.5736 59.0993 52.9473 59.4912C53.3255 59.8786 53.5146 60.3822 53.5146 61.002V61.4873C53.5146 62.0889 53.3232 62.5811 52.9404 62.9639C52.5622 63.3421 52.0791 63.5312 51.4912 63.5312C50.8988 63.5312 50.4089 63.3421 50.0215 62.9639C49.6341 62.5811 49.4404 62.0729 49.4404 61.4395V60.9609ZM50.3838 61.4873C50.3838 61.8428 50.484 62.1367 50.6846 62.3691C50.8851 62.597 51.154 62.7109 51.4912 62.7109C51.8148 62.7109 52.0745 62.5993 52.2705 62.376C52.471 62.1527 52.5713 61.8473 52.5713 61.46V60.9609C52.5713 60.6055 52.4733 60.3115 52.2773 60.0791C52.0814 59.8467 51.8148 59.7305 51.4775 59.7305C51.1403 59.7305 50.8737 59.8467 50.6777 60.0791C50.4818 60.3115 50.3838 60.6146 50.3838 60.9883V61.4873ZM54.2871 66.5596C54.2871 65.9626 54.4762 65.4727 54.8545 65.0898C55.2373 64.7025 55.7272 64.5088 56.3242 64.5088C56.9212 64.5088 57.4111 64.7002 57.7939 65.083C58.1768 65.4658 58.3682 65.974 58.3682 66.6074V67.0928C58.3682 67.6898 58.1768 68.182 57.7939 68.5693C57.4157 68.9521 56.9303 69.1436 56.3379 69.1436C55.7454 69.1436 55.2555 68.9544 54.8682 68.5762C54.4808 68.1934 54.2871 67.6852 54.2871 67.0518V66.5596ZM55.2305 67.0928C55.2305 67.4528 55.3307 67.749 55.5312 67.9814C55.7318 68.2093 56.0007 68.3232 56.3379 68.3232C56.666 68.3232 56.9281 68.2116 57.124 67.9883C57.32 67.7604 57.418 67.4528 57.418 67.0654V66.5596C57.418 66.1995 57.3177 65.9056 57.1172 65.6777C56.9212 65.4499 56.6569 65.3359 56.3242 65.3359C56.0007 65.3359 55.7363 65.4499 55.5312 65.6777C55.3307 65.901 55.2305 66.2041 55.2305 66.5869V67.0928ZM51.7783 68.248L51.0605 67.7969L55.9209 60.0176L56.6387 60.4688L51.7783 68.248Z" fill="black"/>
</svg>
